<svg viewBox="0 0 96.21 96.21" xmlns="http://www.w3.org/2000/svg" xmlns:xlink="http://www.w3.org/1999/xlink" id="Layer_2" overflow="hidden"><defs></defs><g id="Icons_16px"><g id="family-care"><rect x="0" y="0" width="96.21" height="96.21" fill="#0070F2" opacity="0"/><path d="M91.4 78.17 69.75 78.17C67.09 78.17 65.9 76.02 65.9 73.36 65.9 70.7 67.09 68.55 69.75 68.55L86.58 68.55C86.33 57.03 76.94 47.74 65.42 47.74L61.09 47.74C59.03 47.74 57.27 46.45 56.59 44.62 55.85 43.44 56.52 41.95 57 40.53 57.84 38.01 59.67 36.65 62.19 37.49 63.4 37.9 64.52 38.11 65.43 38.11 70.17 38.11 73.61 34.65 73.61 29.88 73.61 25.11 70.17 21.65 65.43 21.65 61.59 21.65 58.35 24.05 57.56 27.48 56.97 30.07 54.38 30.94 51.79 30.34 49.8 29.88 48.38 28.99 48.1 27.09 47.84 28.87 46.35 29.78 44.51 30.34 41.97 31.12 39.52 30.34 38.74 27.81 37.58 24.01 34.53 21.65 30.78 21.65 26.04 21.65 22.6 25.11 22.6 29.88 22.6 34.65 26.04 38.11 30.78 38.11 31.68 38.11 32.8 37.9 34.02 37.49 36.54 36.65 38.61 38.36 39.45 40.88 39.93 42.3 40.36 43.44 39.61 44.62 38.92 46.44 37.17 47.74 35.11 47.74L30.78 47.74C19.26 47.74 9.86 57.03 9.62 68.55L26.45 68.55C29.11 68.55 30.26 70.7 30.26 73.36 30.26 76.02 29.11 78.17 26.45 78.17L4.81 78.17C2.15 78.17 0 76.02 0 73.36L0 69.01C0 56.92 6.95 46.44 17.05 41.36 14.5 38.28 12.98 34.29 12.98 29.88 12.98 19.87 20.8 12.03 30.78 12.03 38.79 12.03 45.52 17.12 47.93 25 48 25.24 48.06 25.48 48.09 25.73 48.11 25.6 48.13 25.47 48.16 25.34 49.96 17.51 57.05 12.04 65.4 12.04 75.38 12.04 83.2 19.88 83.2 29.89 83.2 34.3 81.68 38.29 79.13 41.37 89.23 46.44 96.18 56.93 96.18 69.02L96.18 73.37C96.18 76.03 94.03 78.18 91.37 78.18Z" fill="#0070F2"/><path d="M69.75 84.18 26.46 84.18C23.8 84.18 21.65 82.03 21.65 79.37L21.65 74.74C21.65 64.25 26.86 55.28 34.76 50.5 31.98 47.36 30.31 43.2 30.31 38.57 30.31 28.56 38.13 20.72 48.11 20.72 58.09 20.72 65.91 28.56 65.91 38.57 65.91 43.2 64.24 47.36 61.46 50.5 69.36 55.28 74.57 64.25 74.57 74.74L74.57 79.37C74.57 82.03 72.42 84.18 69.76 84.18ZM31.27 74.56 64.94 74.56C64.85 64.38 57.49 56.42 48.1 56.42 38.71 56.42 31.35 64.37 31.26 74.56ZM48.1 30.34C43.36 30.34 39.92 33.8 39.92 38.57 39.92 43.34 43.36 46.8 48.1 46.8 52.84 46.8 56.28 43.34 56.28 38.57 56.28 33.8 52.84 30.34 48.1 30.34Z" fill="#0070F2"/></g></g></svg>