<svg viewBox="0 0 96.21 96.21" xmlns="http://www.w3.org/2000/svg" xmlns:xlink="http://www.w3.org/1999/xlink" id="Layer_2" overflow="hidden"><defs></defs><g id="Icons_16px"><g id="laptop"><rect x="0" y="0" width="96.21" height="96.21" fill="#0070F2" opacity="0"/><path d="M91.4 84.18 4.81 84.18C2.15 84.18 0 82.03 0 79.37 0 76.71 2.15 74.56 4.81 74.56L6.36 74.56C6.32 74.17 6.29 73.77 6.29 73.37L6.24 22.86C6.24 19.97 7.36 17.25 9.41 15.2 11.46 13.15 14.18 12.02 17.06 12.02L79.02 12.02C84.98 12.02 89.84 16.87 89.84 22.83L89.89 73.34C89.89 73.75 89.87 74.15 89.82 74.55L91.38 74.55C94.04 74.55 96.19 76.7 96.19 79.36 96.19 82.02 94.04 84.17 91.38 84.17ZM15.91 72.16 80.28 72.16 80.23 22.85C80.23 22.2 79.68 21.65 79.03 21.65L17.06 21.65C16.63 21.65 16.35 21.87 16.21 22.01 16.08 22.14 15.85 22.43 15.85 22.86L15.85 22.86C15.85 22.86 15.9 72.17 15.9 72.17Z" fill="#0070F2"/></g></g></svg>