<svg viewBox="0 0 96.21 96.21" xmlns="http://www.w3.org/2000/svg" xmlns:xlink="http://www.w3.org/1999/xlink" id="Layer_2" overflow="hidden"><defs></defs><g id="Icons_16px"><g id="lightbulb"><rect x="0" y="0" width="96.21" height="96.21" fill="#0070F2" opacity="0"/><path d="M61.7 96.21 34.56 96.21C31.9 96.21 29.75 94.06 29.75 91.4 29.75 88.74 31.9 86.59 34.56 86.59L61.7 86.59C64.36 86.59 66.51 88.74 66.51 91.4 66.51 94.06 64.36 96.21 61.7 96.21ZM34.56 78.44C33.3 78.44 32.09 77.95 31.19 77.06 30.27 76.16 29.75 74.92 29.75 73.63 29.75 64.99 25.84 60.1 21.32 54.44 16.97 48.99 12.03 42.81 12.03 33.33 12.03 15.57 28.94 0 48.22 0 67.5 0 84.18 15.65 84.18 33.49 84.18 43.05 79.18 49.19 74.76 54.61 70.29 60.11 66.42 64.85 66.42 73.16 66.42 75.78 64.32 77.92 61.69 77.97L34.63 78.43C34.63 78.43 34.57 78.43 34.55 78.43ZM39.37 73.63 39.43 73.63 39.37 73.63ZM48.22 9.62C34.06 9.62 21.64 20.69 21.64 33.32 21.64 39.43 24.81 43.4 28.83 48.43 33.06 53.72 37.77 59.62 39.03 68.74L57.12 68.43C58.38 59.5 63.08 53.73 67.29 48.55 71.34 43.57 74.55 39.63 74.55 33.5 74.55 20.78 62.24 9.63 48.21 9.63Z" fill="#0070F2"/></g></g></svg>