<svg viewBox="0 0 43.18 43.18" xmlns="http://www.w3.org/2000/svg" xmlns:xlink="http://www.w3.org/1999/xlink" id="Layer_2" overflow="hidden"><style>
.MsftOfcThm_Text2_Fill_v2 {
 fill:#1B90FF; 
}
</style>
<defs></defs><g id="Icons_900px_blue7"><g id="newspaper"><rect x="8.1" y="8.1" rx="2.16" ry="2.16" width="5.4" height="5.4" class="MsftOfcThm_Text2_Fill_v2" fill="#1B90FF"/><rect x="16.19" y="8.1" rx="2.16" ry="2.16" width="10.8" height="5.4" class="MsftOfcThm_Text2_Fill_v2" fill="#1B90FF"/><path d="M24.83 20.55 10.26 20.55C9.07 20.55 8.1 19.58 8.1 18.39 8.1 17.2 9.07 16.23 10.26 16.23L24.83 16.23C26.02 16.23 26.99 17.2 26.99 18.39 26.99 19.58 26.02 20.55 24.83 20.55Z" class="MsftOfcThm_Text2_Fill_v2" fill="#1B90FF"/><path d="M24.83 26.99 10.26 26.99C9.07 26.99 8.1 26.02 8.1 24.83 8.1 23.64 9.07 22.67 10.26 22.67L24.83 22.67C26.02 22.67 26.99 23.64 26.99 24.83 26.99 26.02 26.02 26.99 24.83 26.99Z" class="MsftOfcThm_Text2_Fill_v2" fill="#1B90FF"/><path d="M14.03 35.08 10.25 35.08C9.06 35.08 8.09 34.11 8.09 32.92 8.09 31.73 9.06 30.76 10.25 30.76L14.03 30.76C15.22 30.76 16.19 31.73 16.19 32.92 16.19 34.11 15.22 35.08 14.03 35.08Z" class="MsftOfcThm_Text2_Fill_v2" fill="#1B90FF"/><path d="M41.02 43.18 34.47 43.18C33.28 43.18 32.31 42.21 32.31 41.02 32.31 39.83 33.28 38.86 34.47 38.86L38.86 38.86 38.86 2.16C38.86 0.97 39.83 0 41.02 0 42.21 0 43.18 0.97 43.18 2.16L43.18 41.02C43.18 42.21 42.21 43.18 41.02 43.18Z" class="MsftOfcThm_Text2_Fill_v2" fill="#1B90FF"/><path d="M33.04 0 2.16 0C0.97 0 0 0.97 0 2.16L0 41.02C0 42.21 0.97 43.18 2.16 43.18L21.65 43.18C22.22 43.18 22.77 42.95 23.17 42.55L34.56 31.24C34.97 30.84 35.2 30.28 35.2 29.71L35.2 2.16C35.2 0.97 34.23 0 33.04 0ZM4.32 38.86 4.32 4.32 30.88 4.32 30.88 28.82 30 29.69 25.33 29.69C23.27 29.69 21.59 31.37 21.59 33.43L21.59 38.04 20.76 38.87 4.32 38.87Z" class="MsftOfcThm_Text2_Fill_v2" fill="#1B90FF"/></g></g></svg>