<svg viewBox="0 0 43.18 43.18" xmlns="http://www.w3.org/2000/svg" xmlns:xlink="http://www.w3.org/1999/xlink" id="Layer_2" overflow="hidden"><style>
.MsftOfcThm_Text2_Fill_v2 {
 fill:#1B90FF; 
}
</style>
<defs></defs><g id="Icons_900px_blue7"><path d="M42.55 33.67 27.01 18.12C27.01 18.12 26.94 18.08 26.91 18.05 27.35 16.71 27.64 15.3 27.64 13.81 27.64 6.2 21.44 0 13.82 0 11.79 0 10.03 0.5 8.48 0.95 7.75 1.16 7.18 1.74 6.99 2.47 6.79 3.2 6.99 3.99 7.53 4.53L12.75 9.91 9.92 12.73 4.54 7.52C4.03 7.03 3.31 6.81 2.61 6.95 1.91 7.09 1.33 7.56 1.05 8.22 0.35 9.85 0.01 11.61 0.01 13.61 0.01 21.48 6.08 27.64 13.83 27.64 15.32 27.64 16.72 27.34 18.07 26.91 18.1 26.94 18.11 26.98 18.14 27.01L33.68 42.55C34.1 42.97 34.65 43.18 35.21 43.18 35.77 43.18 36.31 42.97 36.74 42.55L42.57 36.72C42.97 36.32 43.2 35.77 43.2 35.19 43.2 34.61 42.97 34.07 42.57 33.66ZM4.32 13.6C4.32 13.51 4.32 13.42 4.32 13.33L8.43 17.31C9.28 18.13 10.63 18.12 11.46 17.29L17.29 11.46C18.12 10.63 18.13 9.28 17.31 8.43L13.34 4.33C13.5 4.33 13.66 4.32 13.82 4.32 19.15 4.32 23.32 8.49 23.32 13.82 23.32 19.15 19.15 23.32 13.82 23.32 8.49 23.32 4.32 19.05 4.32 13.6ZM35.19 37.97 22.06 24.84C23.11 24.05 24.04 23.12 24.84 22.06L37.97 35.19 35.19 37.97Z" id="wrench" class="MsftOfcThm_Text2_Fill_v2" fill="#1B90FF"/></g></svg>