<svg viewBox="0 0 96.21 96.21" xmlns="http://www.w3.org/2000/svg" xmlns:xlink="http://www.w3.org/1999/xlink" id="Layer_2" overflow="hidden"><defs></defs><g id="Icons_16px"><g id="add-coursebook"><rect x="0" y="0" width="96.21" height="96.21" fill="#0070F2" opacity="0"/><path d="M75.16 96.21C72.5 96.21 70.35 94.06 70.35 91.4L70.35 79.97 58.92 79.97C56.26 79.97 54.11 77.82 54.11 75.16 54.11 72.5 56.26 70.35 58.92 70.35L70.35 70.35 70.35 58.92C70.35 56.26 72.5 54.11 75.16 54.11 77.82 54.11 79.97 56.26 79.97 58.92L79.97 70.35 91.4 70.35C94.06 70.35 96.21 72.5 96.21 75.16 96.21 77.82 94.06 79.97 91.4 79.97L79.97 79.97 79.97 91.4C79.97 94.06 77.82 96.21 75.16 96.21Z" fill="#0070F2"/><path d="M28.86 96.21C27.92 96.21 26.99 95.94 26.19 95.4 24.85 94.51 24.05 93.01 24.05 91.4L24.05 34.56C24.05 32.59 25.25 30.82 27.08 30.09L62.75 15.88 53.58 10.15 9.62 26.78 9.62 84.19C9.62 86.85 7.47 89 4.81 89 2.15 89 0 86.85 0 84.19L0 23.45C0 21.45 1.24 19.66 3.11 18.95L52.42 0.31C53.83-0.22 55.4-0.07 56.67 0.73L75.9 12.75C75.9 12.75 75.97 12.79 76 12.82 76 12.82 76 12.82 76 12.82 76.98 13.46 77.65 14.41 77.96 15.46 77.96 15.46 77.96 15.46 77.96 15.46 78.02 15.66 78.06 15.86 78.1 16.06 78.15 16.34 78.17 16.63 78.16 16.92L78.16 43.29C78.16 45.95 76.01 48.1 73.35 48.1 70.69 48.1 68.54 45.95 68.54 43.29L68.54 23.93 33.66 37.82 33.66 84.19 36.83 82.87C39.28 81.85 42.1 83.01 43.12 85.47 44.14 87.92 42.98 90.74 40.52 91.76L30.7 95.84C30.11 96.09 29.48 96.21 28.85 96.21Z" fill="#0070F2"/></g></g></svg>