<svg viewBox="0 0 96.21 96.21" xmlns="http://www.w3.org/2000/svg" xmlns:xlink="http://www.w3.org/1999/xlink" id="Layer_2" overflow="hidden"><defs></defs><g id="Icons_16px"><g id="customer"><rect x="0" y="0" width="96.21" height="96.21" fill="#0070F2" opacity="0"/><path d="M48.1 96.21C36.19 96.21 25.28 91.86 16.87 84.67 16.43 84.39 16.04 84.05 15.72 83.65 6.07 74.85 0 62.17 0 48.1 0 21.58 21.58 0 48.1 0 74.62 0 96.2 21.58 96.2 48.1 96.2 62.05 90.23 74.64 80.71 83.43 80.36 83.88 79.93 84.27 79.43 84.58 71.01 91.82 60.06 96.21 48.1 96.21ZM25 78.87C31.44 83.72 39.44 86.59 48.1 86.59 56.76 86.59 64.78 83.71 71.23 78.85 69.08 73.44 63.66 69.77 57.74 69.77L38.5 69.77C35.29 69.77 32.29 70.71 29.82 72.48 26.87 74.59 25.57 77.38 25 78.87ZM38.5 60.15 57.74 60.15C66.24 60.15 74.15 64.75 78.42 71.78 83.53 65.25 86.58 57.03 86.58 48.11 86.58 26.89 69.32 9.63 48.1 9.63 26.88 9.63 9.62 26.88 9.62 48.1 9.62 57.01 12.67 65.23 17.77 71.76 19.42 68.92 21.58 66.54 24.22 64.65 28.33 61.71 33.27 60.15 38.5 60.15ZM48.1 54.12C37.98 54.12 30.06 46.2 30.06 36.08 30.06 25.96 37.98 18.04 48.1 18.04 58.22 18.04 66.14 25.96 66.14 36.08 66.14 46.2 58.22 54.12 48.1 54.12ZM48.1 27.66C43.22 27.66 39.68 31.2 39.68 36.08 39.68 40.96 43.22 44.5 48.1 44.5 52.98 44.5 56.52 40.96 56.52 36.08 56.52 31.2 52.98 27.66 48.1 27.66Z" fill="#0070F2"/></g></g></svg>