<svg viewBox="0 0 96.21 96.21" xmlns="http://www.w3.org/2000/svg" xmlns:xlink="http://www.w3.org/1999/xlink" id="Layer_2" overflow="hidden"><defs></defs><g id="Icons_16px"><g id="e-learning"><rect x="0" y="0" width="96.21" height="96.21" fill="#0070F2" opacity="0"/><path d="M67.35 96.21 28.86 96.21C26.2 96.21 24.05 94.06 24.05 91.4 24.05 88.74 26.2 86.59 28.86 86.59L36.08 86.59 36.08 78.17 16.84 78.17C10.87 78.17 6.02 73.31 6.02 67.35L6.02 22.85C6.02 16.88 10.88 12.03 16.84 12.03L25.26 12.03C27.92 12.03 30.07 14.18 30.07 16.84 30.07 19.5 27.92 21.65 25.26 21.65L16.84 21.65C16.19 21.65 15.64 22.2 15.64 22.85L15.64 67.35C15.64 68.01 16.18 68.55 16.84 68.55L79.38 68.55C80.04 68.55 80.58 68.01 80.58 67.35L80.58 64.34C80.58 61.68 82.73 59.53 85.39 59.53 88.05 59.53 90.2 61.68 90.2 64.34L90.2 67.35C90.2 73.32 85.34 78.17 79.38 78.17L61.34 78.17 61.34 86.59 67.35 86.59C70.01 86.59 72.16 88.74 72.16 91.4 72.16 94.06 70.01 96.21 67.35 96.21ZM45.7 86.59 51.71 86.59 51.71 78.17 45.7 78.17 45.7 86.59Z" fill="#0070F2"/><path d="M67.59 60.13C67.05 60.13 66.51 60.04 65.99 59.86L39.29 50.44C37.37 49.76 36.08 47.94 36.08 45.9L36.08 14.33C36.08 13.91 36.12 13.49 36.22 13.09 36.22 13.09 36.22 13.09 36.22 13.09 36.22 13.09 36.22 13.09 36.22 13.08L36.22 13.08C36.25 12.94 36.3 12.8 36.34 12.67 36.34 12.67 36.34 12.67 36.34 12.66 36.71 11.61 37.44 10.68 38.47 10.08 38.47 10.08 38.47 10.08 38.47 10.08 38.53 10.05 38.58 10.02 38.64 9.99L56.44 0.56C57.63-0.07 59.02-0.17 60.29 0.28L86.99 9.7C88.91 10.38 90.2 12.2 90.2 14.24L90.2 43.3C90.2 45.96 88.05 48.11 85.39 48.11 82.73 48.11 80.58 45.96 80.58 43.3L80.58 17.64 59.08 10.05 52.85 13.35 69.2 19.12C71.12 19.8 72.41 21.62 72.41 23.66L72.41 55.33C72.41 56.89 71.65 58.36 70.38 59.26 69.56 59.84 68.58 60.14 67.6 60.14ZM45.7 42.5 62.78 48.53 62.78 27.06 45.7 21.03 45.7 42.5Z" fill="#0070F2"/></g></g></svg>