<svg viewBox="0 0 96.21 96.21" xmlns="http://www.w3.org/2000/svg" xmlns:xlink="http://www.w3.org/1999/xlink" id="Layer_2" overflow="hidden"><defs></defs><g id="Icons_16px"><g id="full-stacked-column-chart"><rect x="0" y="0" width="96.21" height="96.21" fill="#0070F2" opacity="0"/><path d="M85.39 90.2 10.82 90.2C8.16 90.2 6.01 88.05 6.01 85.39L6.01 10.82C6.01 8.16 8.16 6.01 10.82 6.01 13.48 6.01 15.63 8.16 15.63 10.82L15.63 80.57 85.38 80.57C88.04 80.57 90.19 82.72 90.19 85.38 90.19 88.04 88.04 90.19 85.38 90.19ZM77.09 72.16C74.43 72.16 72.25 70.01 72.25 67.35 72.25 64.69 74.37 62.54 77.03 62.54L77.09 62.54C79.75 62.54 81.9 64.69 81.9 67.35 81.9 70.01 79.75 72.16 77.09 72.16ZM52.8 72.16C50.14 72.16 47.99 70.01 47.99 67.35L47.99 58.93C47.99 56.27 50.14 54.12 52.8 54.12 55.46 54.12 57.61 56.27 57.61 58.93L57.61 67.35C57.61 70.01 55.46 72.16 52.8 72.16ZM28.98 72.16C26.32 72.16 24.14 70.01 24.14 67.35 24.14 64.69 26.26 62.54 28.92 62.54L28.98 62.54C31.64 62.54 33.79 64.69 33.79 67.35 33.79 70.01 31.64 72.16 28.98 72.16ZM76.97 54.12C74.31 54.12 72.16 51.97 72.16 49.31L72.16 40.89C72.16 38.23 74.31 36.08 76.97 36.08 79.63 36.08 81.78 38.23 81.78 40.89L81.78 49.31C81.78 51.97 79.63 54.12 76.97 54.12ZM28.86 54.12C26.2 54.12 24.05 51.97 24.05 49.31L24.05 40.89C24.05 38.23 26.2 36.08 28.86 36.08 31.52 36.08 33.67 38.23 33.67 40.89L33.67 49.31C33.67 51.97 31.52 54.12 28.86 54.12ZM52.92 45.7C50.26 45.7 48.08 43.55 48.08 40.89 48.08 38.23 50.2 36.08 52.86 36.08L52.92 36.08C55.58 36.08 57.73 38.23 57.73 40.89 57.73 43.55 55.58 45.7 52.92 45.7ZM76.97 30.07C74.31 30.07 72.16 27.92 72.16 25.26L72.16 10.83C72.16 8.17 74.31 6.02 76.97 6.02 79.63 6.02 81.78 8.17 81.78 10.83L81.78 25.26C81.78 27.92 79.63 30.07 76.97 30.07ZM52.8 30.07C50.14 30.07 47.99 27.92 47.99 25.26L47.99 10.83C47.99 8.17 50.14 6.02 52.8 6.02 55.46 6.02 57.61 8.17 57.61 10.83L57.61 25.26C57.61 27.92 55.46 30.07 52.8 30.07ZM28.98 30.07C26.32 30.07 24.14 27.92 24.14 25.26 24.14 22.6 26.26 20.45 28.92 20.45L28.98 20.45C31.64 20.45 33.79 22.6 33.79 25.26 33.79 27.92 31.64 30.07 28.98 30.07ZM28.98 15.63C26.32 15.63 24.14 13.48 24.14 10.82 24.14 8.16 26.26 6.01 28.92 6.01L28.98 6.01C31.64 6.01 33.79 8.16 33.79 10.82 33.79 13.48 31.64 15.63 28.98 15.63Z" fill="#0070F2"/></g></g></svg>