<svg viewBox="0 0 96.21 96.21" xmlns="http://www.w3.org/2000/svg" xmlns:xlink="http://www.w3.org/1999/xlink" id="Layer_2" overflow="hidden"><defs></defs><g id="Icons_1inch"><g id="popup-window"><path d="M0 0 96.21 0 96.21 96.21 0 96.21 0 0Z" fill="#0070F2" opacity="0"/><path d="M72.94 96.21 22.43 96.21C19.78 96.21 17.62 94.05 17.62 91.4 17.62 88.75 19.78 86.59 22.43 86.59L43.3 86.59 43.3 78.17 10.82 78.17C4.87 78.17 0 73.3 0 67.35L0 22.85C0 16.9 4.87 12.03 10.82 12.03L19.24 12.03C21.89 12.03 24.05 14.19 24.05 16.84 24.05 19.49 21.89 21.65 19.24 21.65L10.82 21.65C10.16 21.65 9.62 22.19 9.62 22.85L9.62 67.35C9.62 68.01 10.16 68.55 10.82 68.55L84.9 68.55C85.56 68.55 86.1 68.01 86.1 67.35L86.1 64.64C86.1 61.99 88.26 59.83 90.91 59.83 93.56 59.83 95.72 61.99 95.72 64.64L95.72 67.35C95.72 73.3 90.85 78.17 84.9 78.17L52.91 78.17 52.91 86.59 72.93 86.59C75.58 86.59 77.74 88.75 77.74 91.4 77.74 94.05 75.58 96.21 72.93 96.21Z" fill="#0070F2"/><path d="M91.4 48.11 40.89 48.11C38.24 48.11 36.08 45.95 36.08 43.3L36.08 4.81C36.08 2.16 38.24 0 40.89 0L91.4 0C94.05 0 96.21 2.16 96.21 4.81L96.21 43.29C96.21 45.94 94.05 48.1 91.4 48.1ZM45.7 38.48 86.59 38.48 86.59 9.62 45.7 9.62 45.7 38.48Z" fill="#0070F2"/></g></g></svg>