<svg viewBox="0 0 43.18 43.18" xmlns="http://www.w3.org/2000/svg" xmlns:xlink="http://www.w3.org/1999/xlink" id="Layer_2" overflow="hidden"><style>
.MsftOfcThm_Text2_Fill_v2 {
 fill:#1B90FF; 
}
</style>
<defs></defs><g id="Icons_900px_blue7"><g id="write-new-document"><path d="M30.23 0 14.19 0C13.59 0 13.02 0.25 12.61 0.69L0.58 13.64C0.21 14.04 0 14.56 0 15.11L0 41.02C0 42.21 0.97 43.18 2.16 43.18L6.17 43.18C7.36 43.18 8.33 42.21 8.33 41.02 8.33 39.83 7.36 38.86 6.17 38.86L4.32 38.86 4.32 15.96 5.11 15.11 10.62 15.11C12.94 15.11 14.85 13.17 14.85 10.79L14.85 4.62 15.14 4.31 28.08 4.31 28.08 8.63C28.08 9.82 29.05 10.79 30.24 10.79 31.43 10.79 32.4 9.82 32.4 8.63L32.4 2.16C32.4 0.97 31.43 0 30.24 0Z" class="MsftOfcThm_Text2_Fill_v2" fill="#1B90FF" fill-rule="evenodd"/><g id="pen"><path d="M38.91 23.75C38.33 23.75 37.77 23.52 37.37 23.1L33.14 18.78C32.32 17.94 32.32 16.6 33.14 15.76L35.25 13.6C36.06 12.77 37.52 12.77 38.34 13.6L42.57 17.92C43.39 18.76 43.39 20.1 42.57 20.94L40.46 23.1C40.05 23.51 39.5 23.75 38.92 23.75Z" class="MsftOfcThm_Text2_Fill_v2" fill="#1B90FF"/><path d="M19.88 43.18 15.65 43.18C14.46 43.18 13.49 42.21 13.49 41.02L13.49 36.7C13.49 36.14 13.71 35.59 14.11 35.19L28.91 20.08C29.72 19.25 31.18 19.25 32 20.08L36.23 24.4C37.05 25.24 37.05 26.58 36.23 27.42L21.43 42.53C21.02 42.94 20.47 43.18 19.89 43.18ZM17.81 38.86 18.97 38.86 31.65 25.91 30.44 24.68 17.8 37.59 17.8 38.87Z" class="MsftOfcThm_Text2_Fill_v2" fill="#1B90FF"/></g></g></g></svg>