<svg viewBox="0 0 96.21 96.21" xmlns="http://www.w3.org/2000/svg" xmlns:xlink="http://www.w3.org/1999/xlink" id="Layer_2" overflow="hidden"><defs></defs><g id="Icons_16px"><g id="target-group"><rect x="0" y="0" width="96.21" height="96.21" fill="#0070F2" opacity="0"/><path d="M45.1 96.21C20.23 96.21 0 75.98 0 51.11 0 26.24 20.23 6.01 45.1 6.01 49.24 6.01 53.09 6.47 56.54 7.37 59.11 8.04 60.65 10.67 59.98 13.24 59.31 15.81 56.68 17.35 54.11 16.68 51.45 15.99 48.42 15.63 45.1 15.63 25.54 15.63 9.62 31.55 9.62 51.11 9.62 70.67 25.53 86.59 45.1 86.59 64.67 86.59 80.58 70.67 80.58 51.11 80.58 47.72 80.24 44.78 79.54 42.11 78.86 39.54 80.4 36.91 82.96 36.23 85.53 35.55 88.16 37.09 88.84 39.65 89.76 43.12 90.2 46.87 90.2 51.1 90.2 75.97 69.97 96.2 45.1 96.2ZM45.1 78.17C30.18 78.17 18.04 66.03 18.04 51.11 18.04 36.19 28.99 25.03 42.96 24.06 45.6 23.88 47.91 25.88 48.09 28.53 48.27 31.18 46.27 33.48 43.62 33.66 34.67 34.28 27.65 41.94 27.65 51.11 27.65 60.73 35.47 68.55 45.09 68.55 54.19 68.55 61.86 61.52 62.54 52.55 62.74 49.9 65.06 47.91 67.7 48.12 70.35 48.32 72.33 50.63 72.13 53.28 71.07 67.24 59.19 78.17 45.08 78.17ZM45.1 60.13C40.13 60.13 36.08 56.08 36.08 51.11 36.08 46.14 40.13 42.09 45.1 42.09 45.78 42.09 46.45 42.17 47.1 42.31L66.15 23.26 66.15 15.03C66.15 13.91 66.54 12.83 67.25 11.97L75.67 1.75C76.96 0.18 79.1-0.41 81.01 0.28 82.92 0.97 84.2 2.78 84.2 4.81L84.2 12.03 91.42 12.03C93.45 12.03 95.26 13.3 95.95 15.22 96.64 17.13 96.05 19.27 94.48 20.56L84.26 28.98C83.4 29.69 82.32 30.08 81.2 30.08L72.97 30.08 53.92 49.13C54.07 49.77 54.14 50.44 54.14 51.12 54.14 56.09 50.09 60.14 45.12 60.14ZM75.77 20.45 76.19 20.45C76.04 20.32 75.9 20.18 75.77 20.02L75.77 20.45Z" fill="#0070F2"/></g></g></svg>