<svg viewBox="0 0 96.21 96.21" xmlns="http://www.w3.org/2000/svg" xmlns:xlink="http://www.w3.org/1999/xlink" id="Layer_2" overflow="hidden"><defs></defs><g id="Icons_16px"><g id="dimension"><rect x="0" y="0" width="96.21" height="96.21" fill="#0070F2" opacity="0"/><path d="M40.89 96.21C39.79 96.21 38.71 95.83 37.84 95.12 36.73 94.21 36.08 92.84 36.08 91.4L36.08 50.99C36.08 48.7 37.7 46.72 39.95 46.27L90.46 36.17C91.87 35.89 93.34 36.25 94.45 37.17 95.56 38.08 96.21 39.45 96.21 40.89L96.21 81.3C96.21 83.59 94.59 85.57 92.34 86.02L41.83 96.12C41.52 96.18 41.2 96.21 40.89 96.21ZM45.7 54.94 45.7 85.54 86.59 77.36 86.59 46.76 45.7 54.94Z" fill="#0070F2"/><path d="M22.85 78.17C20.19 78.17 18.04 76.02 18.04 73.36L18.04 32.95C18.04 30.66 19.66 28.68 21.91 28.23L72.42 18.13C75.03 17.61 77.56 19.3 78.08 21.9 78.6 24.51 76.91 27.04 74.31 27.56L27.67 36.89 27.67 73.35C27.67 76.01 25.52 78.16 22.86 78.16ZM4.81 60.13C2.15 60.13 0 57.98 0 55.32L0 14.91C0 12.62 1.62 10.64 3.87 10.19L54.38 0.09C56.99-0.43 59.52 1.26 60.04 3.86 60.56 6.47 58.87 9 56.27 9.52L9.62 18.86 9.62 55.32C9.62 57.98 7.47 60.13 4.81 60.13Z" fill="#0070F2"/></g></g></svg>