<svg viewBox="0 0 96.21 96.21" xmlns="http://www.w3.org/2000/svg" xmlns:xlink="http://www.w3.org/1999/xlink" id="Layer_2" overflow="hidden"><defs></defs><g id="Icons_16px"><g id="overview-chart"><rect x="0" y="0" width="96.21" height="96.21" fill="#0070F2" opacity="0"/><path d="M79.37 96.21 58.93 96.21C56.27 96.21 54.12 94.06 54.12 91.4L54.12 76.97C54.12 74.31 56.27 72.16 58.93 72.16L79.37 72.16C82.03 72.16 84.18 74.31 84.18 76.97L84.18 91.4C84.18 94.06 82.03 96.21 79.37 96.21ZM63.74 86.59 74.56 86.59 74.56 81.78 63.74 81.78 63.74 86.59ZM37.28 96.21 16.84 96.21C14.18 96.21 12.03 94.06 12.03 91.4L12.03 76.97C12.03 74.31 14.18 72.16 16.84 72.16L37.28 72.16C39.94 72.16 42.09 74.31 42.09 76.97L42.09 91.4C42.09 94.06 39.94 96.21 37.28 96.21ZM21.65 86.59 32.47 86.59 32.47 81.78 21.65 81.78 21.65 86.59ZM91.4 60.13 70.96 60.13C68.3 60.13 66.15 57.98 66.15 55.32L66.15 40.89C66.15 38.23 68.3 36.08 70.96 36.08L91.4 36.08C94.06 36.08 96.21 38.23 96.21 40.89L96.21 55.32C96.21 57.98 94.06 60.13 91.4 60.13ZM75.77 50.51 86.59 50.51 86.59 45.7 75.77 45.7 75.77 50.51ZM55.32 60.13 40.89 60.13C38.23 60.13 36.08 57.98 36.08 55.32L36.08 40.89C36.08 38.23 38.23 36.08 40.89 36.08L55.32 36.08C57.98 36.08 60.13 38.23 60.13 40.89L60.13 55.32C60.13 57.98 57.98 60.13 55.32 60.13ZM45.7 50.51 50.51 50.51 50.51 45.7 45.7 45.7 45.7 50.51ZM25.25 60.13 4.81 60.13C2.15 60.13 0 57.98 0 55.32L0 40.89C0 38.23 2.15 36.08 4.81 36.08L25.25 36.08C27.91 36.08 30.06 38.23 30.06 40.89L30.06 55.32C30.06 57.98 27.91 60.13 25.25 60.13ZM9.62 50.51 20.44 50.51 20.44 45.7 9.62 45.7 9.62 50.51ZM79.37 24.05 58.93 24.05C56.27 24.05 54.12 21.9 54.12 19.24L54.12 4.81C54.12 2.15 56.27 0 58.93 0L79.37 0C82.03 0 84.18 2.15 84.18 4.81L84.18 19.24C84.18 21.9 82.03 24.05 79.37 24.05ZM63.74 14.43 74.56 14.43 74.56 9.62 63.74 9.62 63.74 14.43ZM37.28 24.05 16.84 24.05C14.18 24.05 12.03 21.9 12.03 19.24L12.03 4.81C12.03 2.15 14.18 0 16.84 0L37.28 0C39.94 0 42.09 2.15 42.09 4.81L42.09 19.24C42.09 21.9 39.94 24.05 37.28 24.05ZM21.65 14.43 32.47 14.43 32.47 9.62 21.65 9.62 21.65 14.43ZM69.15 79.97C68.34 79.97 67.53 79.64 66.93 79L48.1 58.46 29.27 79C28.15 80.22 26.25 80.31 25.02 79.18 23.8 78.06 23.71 76.16 24.84 74.93L44.68 53.28C45.57 52.31 46.95 52.06 48.1 52.56 49.25 52.06 50.63 52.31 51.52 53.28L71.36 74.93C72.48 76.15 72.4 78.06 71.18 79.18 70.6 79.71 69.87 79.97 69.15 79.97ZM72.76 51.11 57.13 51.11C55.47 51.11 54.12 49.76 54.12 48.1 54.12 46.44 55.47 45.09 57.13 45.09L72.76 45.09C74.42 45.09 75.77 46.44 75.77 48.1 75.77 49.76 74.42 51.11 72.76 51.11ZM40.23 51.11 24.49 51.11C22.83 51.11 21.48 49.76 21.48 48.1 21.48 46.44 22.83 45.09 24.49 45.09L40.23 45.09C41.89 45.09 43.24 46.44 43.24 48.1 43.24 49.76 41.89 51.11 40.23 51.11ZM49.31 43.9C48.9 43.9 48.49 43.82 48.11 43.65 46.96 44.15 45.57 43.89 44.68 42.91L26.2 22.55C25.08 21.32 25.18 19.42 26.41 18.3 27.64 17.18 29.54 17.28 30.66 18.51L48.11 37.74 65.56 18.51C66.67 17.28 68.58 17.19 69.81 18.3 71.04 19.42 71.13 21.32 70.02 22.55L51.54 42.91C50.95 43.56 50.13 43.9 49.31 43.9Z" fill="#0070F2"/></g></g></svg>