<svg viewBox="0 0 96.21 96.21" xmlns="http://www.w3.org/2000/svg" xmlns:xlink="http://www.w3.org/1999/xlink" id="Layer_2" overflow="hidden"><defs></defs><g id="Icons_16px"><g id="people-connected"><rect x="0" y="0" width="96.21" height="96.21" fill="#0070F2" opacity="0"/><path d="M67.35 96.21 28.86 96.21C26.2 96.21 24.05 94.06 24.05 91.4L24.05 88.99C24.05 79.84 29.45 71.93 37.24 68.28 32.99 65.01 30.24 59.88 30.24 54.11 30.24 48.82 32.55 43.84 36.59 40.45 40.63 37.04 45.99 35.61 51.29 36.53 58.56 37.83 64.47 43.75 65.7 50.95 66.61 56.24 65.18 61.6 61.77 65.64 60.93 66.64 60 67.53 58.98 68.3 66.76 71.95 72.15 79.86 72.15 89L72.15 91.41C72.15 94.07 70 96.22 67.34 96.22ZM33.89 86.59 62.31 86.59C61.18 80.44 55.77 75.77 49.3 75.77L46.89 75.77C40.42 75.77 35.01 80.44 33.88 86.59ZM48.11 45.87C46.15 45.87 44.3 46.53 42.79 47.81 40.93 49.38 39.86 51.68 39.86 54.12 39.86 58.67 43.56 62.36 48.1 62.36 50.54 62.36 52.84 61.29 54.41 59.43 56.01 57.53 56.65 55.09 56.21 52.56 56.21 52.56 56.21 52.56 56.21 52.56 55.66 49.34 52.89 46.59 49.63 46.01 49.12 45.92 48.61 45.88 48.11 45.88Z" fill="#0070F2"/><path d="M91.4 60.13 76.97 60.13C74.31 60.13 72.16 57.98 72.16 55.32 72.16 50.38 76.18 46.37 81.12 46.37L87.25 46.37C92.19 46.37 96.21 50.39 96.21 55.32 96.21 57.98 94.06 60.13 91.4 60.13ZM87.25 55.99 87.31 55.99 87.25 55.99ZM19.24 60.13 4.81 60.13C2.15 60.13 0 57.98 0 55.32 0 50.38 4.02 46.37 8.96 46.37L15.09 46.37C20.03 46.37 24.05 50.39 24.05 55.32 24.05 57.98 21.9 60.13 19.24 60.13ZM15.09 55.99 15.15 55.99 15.09 55.99ZM84.18 42.09C80.86 42.09 78.17 39.39 78.17 36.08 78.17 34.3 78.95 32.63 80.31 31.48 81.67 30.33 83.46 29.85 85.22 30.15 87.73 30.6 89.69 32.57 90.11 35.05 90.41 36.8 89.93 38.59 88.78 39.95 87.64 41.31 85.96 42.09 84.18 42.09ZM12.03 42.09C8.71 42.09 6.02 39.39 6.02 36.08 6.02 34.3 6.8 32.63 8.16 31.48 9.52 30.33 11.31 29.85 13.07 30.15 15.58 30.6 17.54 32.57 17.96 35.05 18.26 36.81 17.78 38.59 16.63 39.95 15.49 41.31 13.81 42.09 12.03 42.09ZM55.32 30.07 40.89 30.07C38.23 30.07 36.08 27.92 36.08 25.26 36.08 20.32 40.1 16.31 45.04 16.31L51.17 16.31C56.11 16.31 60.13 20.33 60.13 25.26 60.13 27.92 57.98 30.07 55.32 30.07ZM51.17 25.92 51.23 25.92 51.17 25.92ZM82.89 25.35C81.23 25.35 79.61 24.49 78.72 22.94 76.74 19.5 72.94 16.36 69.7 15.47 67.14 14.77 65.63 12.13 66.32 9.56 67.02 7 69.66 5.49 72.23 6.18 77.96 7.74 83.78 12.43 87.06 18.13 88.39 20.43 87.59 23.37 85.29 24.7 84.53 25.14 83.71 25.34 82.89 25.34ZM13.32 25.35C12.51 25.35 11.68 25.14 10.92 24.71 8.62 23.38 7.83 20.44 9.15 18.14 12.43 12.44 18.25 7.75 23.98 6.19 26.54 5.49 29.19 7 29.89 9.57 30.59 12.13 29.08 14.78 26.51 15.48 23.26 16.37 19.47 19.51 17.49 22.95 16.6 24.5 14.98 25.36 13.32 25.36ZM48.11 12.03C44.79 12.03 42.1 9.33 42.1 6.02 42.1 4.24 42.88 2.57 44.24 1.42 45.6 0.27 47.39-0.21 49.15 0.1 51.66 0.55 53.62 2.51 54.04 5 54.34 6.76 53.86 8.54 52.71 9.9 51.57 11.26 49.89 12.04 48.11 12.04Z" fill="#0070F2"/></g></g></svg>