<svg viewBox="0 0 96.21 96.21" xmlns="http://www.w3.org/2000/svg" xmlns:xlink="http://www.w3.org/1999/xlink" id="Layer_2" overflow="hidden"><defs></defs><g id="Icons_16px"><g id="add-product"><rect x="0" y="0" width="96.21" height="96.21" fill="#0070F2" opacity="0"/><g id="add-product-2"><path d="M85.39 48.11C82.73 48.11 80.58 45.96 80.58 43.3L80.58 29.3 45.68 8.97C43.38 7.63 42.61 4.69 43.95 2.39 45.29 0.09 48.23-0.68 50.53 0.66L87.81 22.38C89.29 23.24 90.2 24.82 90.2 26.54L90.2 43.3C90.2 45.96 88.05 48.11 85.39 48.11ZM64.08 32.27 32.6 12.79C30.99 11.79 28.93 11.84 27.36 12.9L8.12 26.02C8.12 26.02 8.12 26.1 8.13 26.14 6.91 27.01 6.05 28.37 6.05 29.99L6.05 69.78C6.05 71.5 6.97 73.09 8.45 73.95L45.83 95.56C45.83 95.56 45.84 95.56 45.85 95.56 46.58 95.98 47.4 96.21 48.24 96.21 49.08 96.21 49.9 96 50.66 95.56L55.85 92.54C58.15 91.2 58.92 88.26 57.59 85.96 56.25 83.66 53.31 82.89 51.01 84.22L48.24 85.83 15.68 67 15.68 32.5 30.2 22.6 56.69 38.99 56.6 43.18C56.54 45.84 58.65 48.04 61.31 48.1L61.41 48.1C64.02 48.1 66.16 46.01 66.22 43.39L66.37 36.45C66.41 34.75 65.54 33.15 64.09 32.26ZM45.53 66.15C46.86 63.85 46.07 60.91 43.77 59.58L31.27 52.36C28.97 51.03 26.03 51.82 24.7 54.12 23.37 56.42 24.16 59.36 26.46 60.69L38.96 67.91C39.72 68.35 40.54 68.56 41.36 68.56 43.02 68.56 44.64 67.7 45.53 66.15Z" id="product" fill="#0070F2"/><path d="M91.4 70.36 79.97 70.36 79.97 58.93C79.97 56.28 77.82 54.12 75.16 54.12 72.5 54.12 70.35 56.28 70.35 58.93L70.35 70.36 58.92 70.36C56.27 70.36 54.11 72.51 54.11 75.17 54.11 77.83 56.27 79.98 58.92 79.98L70.35 79.98 70.35 91.41C70.35 94.06 72.5 96.22 75.16 96.22 77.82 96.22 79.97 94.06 79.97 91.41L79.97 79.98 91.4 79.98C94.05 79.98 96.21 77.83 96.21 75.17 96.21 72.51 94.05 70.36 91.4 70.36Z" fill="#0070F2"/></g></g></g></svg>