<svg viewBox="0 0 96.21 96.21" xmlns="http://www.w3.org/2000/svg" xmlns:xlink="http://www.w3.org/1999/xlink" id="Layer_2" overflow="hidden"><defs></defs><g id="Icons_16px"><g id="message-popup"><rect x="0" y="0" width="96.21" height="96.21" fill="#0070F2" opacity="0"/><path d="M91.4 96.21C90.2 96.21 89.02 95.76 88.11 94.91L70.26 78.17 16.84 78.17C7.56 78.17 0 70.62 0 61.33L0 16.84C0 7.55 7.55 0 16.84 0L79.38 0C88.66 0 96.22 7.55 96.22 16.84L96.22 91.4C96.22 93.32 95.08 95.05 93.32 95.81 92.7 96.08 92.05 96.21 91.41 96.21ZM16.84 9.62C12.86 9.62 9.62 12.86 9.62 16.84L9.62 61.34C9.62 65.32 12.86 68.56 16.84 68.56L72.16 68.56C73.38 68.56 74.56 69.03 75.45 69.86L86.59 80.31 86.59 16.84C86.59 12.86 83.35 9.62 79.37 9.62L16.84 9.62Z" fill="#0070F2"/><path d="M48.1 60.13C44.78 60.13 42.09 57.43 42.09 54.12 42.09 50.81 44.79 48.11 48.1 48.11 51.41 48.11 54.11 50.81 54.11 54.12 54.11 57.43 51.41 60.13 48.1 60.13ZM48.1 42.09C45.44 42.09 43.29 39.94 43.29 37.28L43.29 22.85C43.29 20.19 45.44 18.04 48.1 18.04 50.76 18.04 52.91 20.19 52.91 22.85L52.91 37.28C52.91 39.94 50.76 42.09 48.1 42.09Z" fill="#0070F2"/></g></g></svg>