<svg viewBox="0 0 43.18 43.18" xmlns="http://www.w3.org/2000/svg" xmlns:xlink="http://www.w3.org/1999/xlink" id="Layer_2" overflow="hidden"><style>
.MsftOfcThm_Text2_Fill_v2 {
 fill:#1B90FF; 
}
</style>
<defs></defs><g id="Icons_900px_blue7"><g id="tags"><path d="M23.19 43.18C21.17 43.18 19.27 42.39 17.85 40.97L2.21 25.33C0.78 23.9 0 22.01 0 19.99L0 10.26C0 9.69 0.23 9.14 0.63 8.73L8.73 0.63C9.14 0.22 9.68 0 10.26 0L20 0C22.02 0 23.92 0.79 25.34 2.21L40.97 17.84C43.92 20.79 43.92 25.58 40.97 28.53L28.54 40.96C27.11 42.39 25.22 43.17 23.2 43.17ZM4.32 11.15 4.32 19.99C4.32 20.86 4.66 21.67 5.27 22.28L20.9 37.91C22.12 39.13 24.26 39.13 25.48 37.91L37.91 25.48C39.17 24.22 39.17 22.16 37.91 20.9L22.28 5.27C21.67 4.66 20.86 4.32 19.99 4.32L11.15 4.32 4.32 11.15Z" class="MsftOfcThm_Text2_Fill_v2" fill="#1B90FF"/><path d="M14.84 18.89C17 18.89 18.89 17 18.89 14.84 18.89 12.68 17.01 10.79 14.85 10.8 12.69 10.8 10.8 12.69 10.8 14.85 10.8 17.01 12.68 18.9 14.84 18.89Z" class="MsftOfcThm_Text2_Fill_v2" fill="#1B90FF" fill-rule="evenodd"/><path d="M25.1 32.39C24.52 32.39 23.95 32.16 23.52 31.7 22.71 30.83 22.75 29.46 23.63 28.65L27.68 24.87C28.55 24.06 29.92 24.1 30.73 24.98 31.54 25.85 31.5 27.22 30.62 28.03L26.57 31.81C26.15 32.2 25.62 32.39 25.1 32.39Z" class="MsftOfcThm_Text2_Fill_v2" fill="#1B90FF"/><path d="M20.24 27.8C19.69 27.8 19.14 27.59 18.71 27.17 17.87 26.33 17.87 24.96 18.71 24.12L26 16.83C26.84 15.99 28.21 15.99 29.05 16.83 29.89 17.67 29.89 19.04 29.05 19.88L21.76 27.17C21.34 27.59 20.79 27.8 20.23 27.8Z" class="MsftOfcThm_Text2_Fill_v2" fill="#1B90FF"/></g></g></svg>